<svg viewBox="0 0 96 96" xmlns="http://www.w3.org/2000/svg" xmlns:xlink="http://www.w3.org/1999/xlink" id="Icons_Dice" overflow="hidden"><path d="M43 10 15 10C12.7909 10 11 11.7909 11 14L11 42C11 44.2091 12.7909 46 15 46L43 46C45.2091 46 47 44.2091 47 42L47 14C47 11.7909 45.2091 10 43 10ZM22 41C20.3431 41 19 39.6569 19 38 19 36.3431 20.3431 35 22 35 23.6569 35 25 36.3431 25 38 25 39.6569 23.6569 41 22 41ZM22 31C20.3431 31 19 29.6569 19 28 19 26.3431 20.3431 25 22 25 23.6569 25 25 26.3431 25 28 25 29.6569 23.6569 31 22 31ZM22 21C20.3431 21 19 19.6569 19 18 19 16.3431 20.3431 15 22 15 23.6569 15 25 16.3431 25 18 25 19.6569 23.6569 21 22 21ZM36 41C34.3431 41 33 39.6569 33 38 33 36.3431 34.3431 35 36 35 37.6569 35 39 36.3431 39 38 39 39.6569 37.6569 41 36 41ZM36 31C34.3431 31 33 29.6569 33 28 33 26.3431 34.3431 25 36 25 37.6569 25 39 26.3431 39 28 39 29.6569 37.6569 31 36 31ZM36 21C34.3431 21 33 19.6569 33 18 33 16.3431 34.3431 15 36 15 37.6569 15 39 16.3431 39 18 39 19.6569 37.6569 21 36 21Z" fill="#4472C4"/><path d="M83.63 59.17 63.83 39.37C62.2688 37.807 59.7361 37.8056 58.1731 39.3669 58.1721 39.3679 58.1711 39.3689 58.17 39.37L38.37 59.17C36.807 60.7312 36.8056 63.2639 38.3669 64.8269 38.3679 64.8279 38.3689 64.8289 38.37 64.83L58.17 84.63C59.7312 86.193 62.2639 86.1944 63.8269 84.6331 63.8279 84.6321 63.8289 84.631 63.83 84.63L83.63 64.83C85.193 63.2688 85.1944 60.7361 83.6331 59.1731 83.6321 59.1721 83.631 59.1711 83.63 59.17ZM61 47.86C62.1708 46.6877 64.0703 46.6865 65.2426 47.8574 66.4149 49.0282 66.4161 50.9277 65.2453 52.1 64.0744 53.2723 62.1749 53.2735 61.0026 52.1026 61.0018 52.1018 61.0009 52.1009 61 52.1 59.8302 50.9287 59.8302 49.0313 61 47.86ZM51.1 66.24C49.9292 67.4123 48.0297 67.4135 46.8574 66.2426 45.6851 65.0718 45.6839 63.1723 46.8547 62 48.0256 60.8277 49.9251 60.8265 51.0974 61.9974 51.0982 61.9982 51.0991 61.9991 51.1 62 52.2698 63.1713 52.2698 65.0687 51.1 66.24ZM53.93 54.93C55.1008 53.7577 57.0003 53.7565 58.1726 54.9274 59.3449 56.0982 59.3461 57.9977 58.1753 59.17 57.0044 60.3423 55.1049 60.3435 53.9326 59.1726 53.9318 59.1718 53.9309 59.1709 53.93 59.17 52.7602 57.9987 52.7602 56.1013 53.93 54.93ZM61 76.14C59.8292 77.3123 57.9297 77.3135 56.7574 76.1426 55.5851 74.9718 55.5839 73.0723 56.7547 71.9 57.9256 70.7277 59.8251 70.7265 60.9974 71.8974 60.9982 71.8982 60.9991 71.8991 61 71.9 62.1698 73.0713 62.1698 74.9687 61 76.14ZM68.07 69.07C66.8992 70.2423 64.9997 70.2435 63.8274 69.0726 62.6551 67.9018 62.6539 66.0023 63.8247 64.83 64.9956 63.6577 66.8951 63.6565 68.0674 64.8274 68.0682 64.8282 68.0691 64.8291 68.07 64.83 69.2398 66.0013 69.2398 67.8987 68.07 69.07ZM75.14 62C73.9692 63.1723 72.0697 63.1735 70.8974 62.0026 69.7251 60.8318 69.7239 58.9323 70.8947 57.76 72.0656 56.5877 73.9651 56.5865 75.1374 57.7574 75.1382 57.7582 75.1391 57.7591 75.14 57.76 76.3098 58.9313 76.3098 60.8287 75.14 62Z" fill="#4472C4"/></svg>